# xmcd CD database file
#
# Track frame offsets:
#	150
#	15272
#	36061
#	43461
#	60163
#	77918
#	98791
#	114884
#	138482
#	166512
#	185883
#	215495
#	239274
#
# Disc length: 3392 seconds
#
# Revision: 0
# Processed by: cddbd v1.4PL0 Copyright (c) Steve Scherf et al.
# Submitted via: CDex 1.51
#
DISCID=a30d3e0d
DTITLE=Pekka Helin and The Soul for Sale Band - Gettin' it
DYEAR=1999
DGENRE=Jazz
TTITLE0=Gettin' it
TTITLE1=I', still diggin' on James Brown
TTITLE2=The best things in life
TTITLE3=It's all right with me
TTITLE4=Stagger Lee
TTITLE5=The dock of the Bay
TTITLE6=Acid fever
TTITLE7=Smack dab in the middle
TTITLE8=In and out of love blues
TTITLE9=Mack the knife
TTITLE10=The comeback
TTITLE11=Shake it off
TTITLE12=Mess around
EXTD=YEAR: 1999
EXTT0=
EXTT1=
EXTT2=
EXTT3=
EXTT4=
EXTT5=
EXTT6=
EXTT7=
EXTT8=
EXTT9=
EXTT10=
EXTT11=
EXTT12=
PLAYORDER=
